# xmcd
#
# Track frame offsets: 
#        150
#        22451
#        63944
#        83322
#        123332
#        151062
#        170444
#        191487
#        222430
#        246735
#        269569
#
# Disc length: 3901 seconds
#
# Revision: 1
# Processed by: cddbd v1.5.2PL0 Copyright (c) Steve Scherf et al.
# Submitted via: ExactAudioCopyFreeDBPlugin 1.0
#
DISCID=9b0f3b0b
DTITLE=Stevie Ray Vaughan - The Slow Blues
DYEAR=2003
DGENRE=Blues
TTITLE0=Things That I Used To Do
TTITLE1=Tin Pan Alley
TTITLE2=Leave My Little Girl Alone
TTITLE3=Riviera Paradise
TTITLE4=Ain't Gonna Give Up On Love
TTITLE5=Life Without You
TTITLE6=The Sky Is Crying
TTITLE7=Little Wing
TTITLE8=Texas Flood
TTITLE9=Dirty Pool
TTITLE10=Lenny
EXTD=
EXTT0=
EXTT1=
EXTT2=
EXTT3=
EXTT4=
EXTT5=
EXTT6=
EXTT7=
EXTT8=
EXTT9=
EXTT10=
PLAYORDER=
